<svg width="1024" height="1024" viewBox="0 0 1024 1024" fill="none" xmlns="http://www.w3.org/2000/svg" role="img" aria-label="y">
  <rect width="1024" height="1024" rx="224" fill="#FFFFFF"/>
  <g fill="#050505">
  <path d="M 325.942 228.951 C 318.468 231.211, 315.516 235.823, 313.901 247.761 L 312.853 255.500 317.677 267.450 C 322.267 278.822, 322.666 279.443, 325.935 280.277 C 333.636 282.241, 340.553 278.321, 343.678 270.222 C 346.415 263.129, 346.218 244.225, 343.343 237.908 C 340.081 230.743, 332.654 226.920, 325.942 228.951 M 411.604 229.038 C 403.186 231.558, 399.585 240.325, 400.152 256.916 C 400.461 265.945, 400.909 268.349, 403.062 272.533 C 407.662 281.470, 417.981 283.467, 425.490 276.874 C 429.932 272.975, 430.656 269.020, 428.124 262.500 C 426.008 257.055, 425.994 257.070, 424.484 266.400 C 423.775 270.780, 419.277 276, 416.212 276 C 413.736 276, 409 272.312, 409 270.385 C 409 269.577, 412.073 264.092, 415.830 258.197 C 421.913 248.652, 422.557 247.172, 421.723 244.668 C 420.810 241.930, 420.615 242.132, 414.212 252.480 C 406.551 264.860, 405.369 264.725, 406.297 251.580 C 407.169 239.220, 409.800 234, 415.155 234 C 418.373 234, 418.348 234.046, 417.025 230.565 C 415.967 227.782, 415.882 227.758, 411.604 229.038 M 670.604 229.041 C 662.707 231.398, 658.909 239.597, 658.909 254.290 C 658.909 264.770, 659.414 267.763, 662.084 273.097 C 664.609 278.142, 668.444 280.380, 674.674 280.446 C 681.170 280.514, 684.584 278.209, 688 271.448 C 690.253 266.989, 690.500 265.314, 690.500 254.500 C 690.500 243.686, 690.253 242.011, 688 237.552 C 686.625 234.831, 684.375 231.834, 683 230.894 C 679.849 228.738, 674.366 227.918, 670.604 229.041 M 365.250 232.274 C 359.833 235.007, 359 235.799, 359 238.214 C 359 241.518, 359.038 241.526, 363.790 239.128 C 365.830 238.099, 368.512 236.944, 369.750 236.561 L 372 235.865 372 254.933 L 372 274 366.500 274 C 361.056 274, 361 274.030, 361 277 L 361 280 375 280 L 389 280 389 277 C 389 274.030, 388.944 274, 383.500 274 L 378 274 378 251.500 L 378 229 374.750 229.060 C 372.962 229.093, 368.688 230.539, 365.250 232.274 M 624.250 232.274 C 618.833 235.007, 618 235.799, 618 238.214 C 618 239.746, 618.240 241, 618.533 241 C 618.827 241, 621.287 239.875, 624 238.500 C 626.713 237.125, 629.398 236, 629.967 236 C 630.641 236, 631 242.592, 631 255 L 631 274 625.500 274 C 620.056 274, 620 274.030, 620 277 L 620 280 634 280 L 648 280 648 277 C 648 274.030, 647.944 274, 642.500 274 L 637 274 637 251.500 L 637 229 633.750 229.060 C 631.962 229.093, 627.688 230.539, 624.250 232.274 M 595.583 240.713 C 594.013 245.546, 592.511 250.175, 592.245 251 C 591.980 251.825, 593.051 250.700, 594.627 248.500 C 597.399 244.632, 597.505 244.582, 597.852 247 C 598.695 252.873, 597.327 267.595, 595.640 270.793 C 593.556 274.746, 589.566 276.579, 586.291 275.087 C 584.304 274.181, 583.945 274.372, 583.377 276.634 C 582.519 280.054, 584.367 281.199, 589.864 280.653 C 595.154 280.128, 598.910 277.555, 601.253 272.851 C 606.374 262.570, 605.760 241.636, 600.117 234.156 C 598.464 231.964, 598.389 232.073, 595.583 240.713 M 707.250 233.745 C 704.735 234.997, 704 236, 704 238.181 C 704 239.732, 704.204 241, 704.453 241 C 706.103 241, 709.911 238.479, 710.302 237.128 C 710.561 236.233, 711.097 234.713, 711.494 233.750 C 712.367 231.629, 711.504 231.628, 707.250 233.745 M 324.270 236.250 C 323.127 237.488, 321.701 240.300, 321.101 242.500 C 319.867 247.027, 319.599 263, 320.757 263 C 321.174 263, 322.672 261.087, 324.088 258.750 C 325.503 256.413, 328.989 250.789, 331.835 246.254 L 337.008 238.008 335.004 236.004 C 332.241 233.241, 326.937 233.363, 324.270 236.250 M 669.783 235.750 C 668.944 236.713, 667.675 238.621, 666.965 239.990 C 665.414 242.978, 664.345 261.477, 665.676 262.300 C 666.406 262.751, 673.724 251.998, 681.282 239.370 C 681.761 238.570, 681.276 237.276, 680.032 236.032 C 677.487 233.487, 671.892 233.333, 669.783 235.750 M 334.543 250.500 C 321.994 269.804, 321.933 269.920, 323.221 271.983 C 326.458 277.166, 333.615 276.531, 336.640 270.793 C 338.341 267.568, 339.705 252.719, 338.827 247 C 338.480 244.743, 338.064 245.083, 334.543 250.500 M 675.238 257.374 L 666.986 270.140 669.916 273.070 C 671.528 274.682, 673.681 276, 674.701 276 C 677.025 276, 680.661 273.502, 682.014 270.975 C 683.641 267.933, 684.964 254.911, 684.193 249.520 L 683.491 244.607 675.238 257.374 M 368.395 309.084 C 360.634 311.329, 356.909 319.503, 356.909 334.290 C 356.909 344.770, 357.414 347.763, 360.084 353.097 C 362.609 358.142, 366.444 360.380, 372.674 360.446 C 379.170 360.514, 382.584 358.209, 386 351.448 C 388.253 346.989, 388.500 345.314, 388.500 334.500 C 388.500 323.686, 388.253 322.011, 386 317.552 C 384.625 314.831, 382.375 311.834, 381 310.894 C 377.812 308.713, 372.375 307.932, 368.395 309.084 M 627.942 308.951 C 620.692 311.144, 617.762 315.471, 615.982 326.614 C 613.893 339.688, 617.414 354.604, 623.535 358.615 C 625.245 359.735, 628.229 360.418, 631.553 360.450 C 638.181 360.513, 641.564 358.248, 645 351.448 C 647.258 346.979, 647.498 345.339, 647.477 334.500 C 647.458 324.463, 647.111 321.749, 645.353 317.908 C 642.073 310.739, 634.651 306.921, 627.942 308.951 M 408.250 312.274 C 402.833 315.007, 402 315.799, 402 318.214 C 402 319.746, 402.212 321, 402.471 321 C 402.731 321, 405.487 319.875, 408.596 318.500 C 411.705 317.125, 414.418 316, 414.624 316 C 414.831 316, 415 324.550, 415 335 L 415 354 409.500 354 C 404.056 354, 404 354.030, 404 357 L 404 360 418 360 L 432 360 432 357 C 432 354.030, 431.944 354, 426.500 354 L 421 354 421 331.500 L 421 309 417.750 309.060 C 415.962 309.093, 411.688 310.539, 408.250 312.274 M 581.250 312.274 C 575.833 315.007, 575 315.799, 575 318.214 C 575 319.746, 575.240 321, 575.533 321 C 575.827 321, 578.287 319.875, 581 318.500 C 583.713 317.125, 586.398 316, 586.967 316 C 587.641 316, 588 322.592, 588 335 L 588 354 582.500 354 C 577.056 354, 577 354.030, 577 357 L 577 360 591.066 360 L 605.133 360 604.816 357.250 C 604.521 354.685, 604.147 354.480, 599.250 354.198 L 594 353.895 594 331.448 L 594 309 590.750 309.060 C 588.962 309.093, 584.688 310.539, 581.250 312.274 M 667.250 312.274 C 661.833 315.007, 661 315.799, 661 318.214 C 661 321.518, 661.038 321.526, 665.790 319.128 C 674.044 314.964, 673.881 314.866, 674.209 324.196 L 674.500 332.500 677.255 325 C 678.770 320.875, 680.007 315.587, 680.005 313.250 C 680 309.110, 679.916 309.002, 676.750 309.060 C 674.962 309.093, 670.688 310.539, 667.250 312.274 M 367.783 315.750 C 366.944 316.712, 365.675 318.621, 364.965 319.990 C 363.414 322.978, 362.345 341.477, 363.676 342.300 C 364.406 342.751, 371.724 331.998, 379.282 319.370 C 379.761 318.570, 379.276 317.276, 378.032 316.032 C 375.487 313.487, 369.892 313.333, 367.783 315.750 M 626.270 316.250 C 625.127 317.488, 623.701 320.300, 623.101 322.500 C 621.867 327.027, 621.599 343, 622.757 343 C 623.174 343, 624.672 341.087, 626.088 338.750 C 627.503 336.413, 630.989 330.789, 633.835 326.254 L 639.008 318.008 637.004 316.004 C 634.241 313.241, 628.937 313.363, 626.270 316.250 M 445.094 318.608 C 443.188 322.670, 442.501 339.281, 443.951 346.264 C 445.788 355.112, 452.016 361, 459.537 361 C 463.304 361, 462.592 356.925, 458.643 355.875 C 455.218 354.965, 452 352.240, 452 350.249 C 452 349.457, 452.944 347.483, 454.098 345.863 C 455.611 343.737, 456.005 342.162, 455.511 340.208 L 454.826 337.500 452.490 340.420 L 450.154 343.339 449.463 339.652 C 449.082 337.624, 449.048 333.160, 449.388 329.732 C 449.866 324.902, 449.605 322.624, 448.227 319.608 L 446.451 315.716 445.094 318.608 M 373.238 337.374 L 364.986 350.140 367.916 353.070 C 369.528 354.682, 371.681 356, 372.701 356 C 375.025 356, 378.661 353.502, 380.014 350.975 C 381.641 347.933, 382.964 334.911, 382.193 329.520 L 381.491 324.607 373.238 337.374 M 636.543 330.500 C 623.994 349.804, 623.933 349.920, 625.221 351.983 C 628.458 357.166, 635.615 356.531, 638.640 350.793 C 640.341 347.568, 641.705 332.719, 640.827 327 C 640.480 324.743, 640.064 325.083, 636.543 330.500 M 663 357.200 C 663 360.617, 664.286 360.119, 665.455 356.250 C 665.958 354.585, 665.728 354, 664.567 354 C 663.471 354, 663 354.961, 663 357.200 M 411.604 389.041 C 403.188 391.552, 399.584 400.325, 400.152 416.916 C 400.461 425.945, 400.909 428.349, 403.062 432.533 C 408.997 444.065, 424.164 443.268, 429.741 431.130 C 431.017 428.353, 431.420 424.446, 431.455 414.500 C 431.497 402.432, 431.321 401.184, 429 397.089 C 427.625 394.662, 425.375 391.891, 424 390.930 C 420.872 388.745, 415.395 387.910, 411.604 389.041 M 583.500 389.493 C 575.658 392.294, 572.481 399.683, 572.531 415 C 572.583 430.677, 576.809 438.936, 585.626 440.590 C 590.123 441.433, 595.976 439.719, 598.776 436.738 C 605.556 429.522, 606.866 407.074, 601.151 396.058 C 597.922 389.835, 590.389 387.033, 583.500 389.493 M 369.250 390.220 C 365.774 391.897, 366.798 397.782, 370.330 396.427 C 371.764 395.877, 372 396.555, 372 401.221 C 372 405.772, 375.619 417.853, 377.600 419.917 C 377.820 420.146, 378 413.283, 378 404.667 L 378 389 374.750 389.068 C 372.962 389.105, 370.488 389.624, 369.250 390.220 M 451.750 392.141 C 445.743 394.964, 445 395.626, 445 398.156 C 445 401.636, 445.740 401.672, 452 398.500 C 454.713 397.125, 457.173 396, 457.467 396 C 457.760 396, 458 404.526, 458 414.948 L 458 433.895 452.750 434.198 C 447.853 434.480, 447.479 434.685, 447.184 437.250 L 446.867 440 460.934 440 L 475 440 475 437 C 475 434.068, 474.887 434, 470.019 434 L 465.038 434 464.769 411.750 L 464.500 389.500 461.500 389.235 C 459.739 389.079, 455.712 390.279, 451.750 392.141 M 544.534 391.722 C 544.158 393.220, 543.899 403.345, 543.959 414.222 L 544.069 434 539.034 434 C 534.107 434, 534 434.064, 534 437 L 534 440 547.500 440 L 561 440 561 437 C 561 434.067, 560.889 434, 556 434 L 551 434 551 411.500 L 551 389 548.108 389 C 545.795 389, 545.080 389.544, 544.534 391.722 M 624.250 392.274 C 618.833 395.007, 618 395.799, 618 398.214 C 618 399.746, 618.240 401, 618.533 401 C 618.827 401, 621.287 399.875, 624 398.500 C 626.713 397.125, 629.398 396, 629.967 396 C 630.641 396, 631 402.592, 631 415 L 631 434 625.500 434 C 620.056 434, 620 434.030, 620 437 L 620 440 626.987 440 L 633.973 440 635.487 436.378 C 636.681 433.518, 637 428.149, 637 410.878 L 637 389 633.750 389.060 C 631.962 389.093, 627.688 390.539, 624.250 392.274 M 410.725 395.752 C 408.128 398.621, 406.902 403.003, 406.297 411.580 C 405.343 425.100, 406.480 424.967, 415.435 410.509 C 422.989 398.315, 423.179 397.855, 421.462 395.959 C 419.178 393.434, 412.931 393.314, 410.725 395.752 M 583.189 396.028 C 582.150 397.143, 580.783 399.782, 580.150 401.894 C 578.778 406.472, 578.587 423.373, 579.916 422.552 C 580.420 422.240, 584.205 416.629, 588.326 410.082 L 595.819 398.179 593.595 396.089 C 590.722 393.390, 585.674 393.360, 583.189 396.028 M 416.688 416.832 C 412.393 423.598, 409.019 429.844, 409.190 430.711 C 409.360 431.578, 410.737 433.210, 412.248 434.338 C 415.582 436.824, 419.236 435.923, 422.253 431.871 C 424.804 428.443, 426.673 414.841, 425.412 408.867 L 424.497 404.530 416.688 416.832 M 589.927 416 C 585.789 422.325, 582.067 428.053, 581.656 428.729 C 579.542 432.202, 586.592 436.866, 591.268 435.088 C 595.421 433.509, 597.322 428.677, 597.794 418.500 C 598.512 402.999, 598.446 402.978, 589.927 416 M 383 434.453 C 383 436.435, 385.674 440, 387.161 440 C 388.538 440, 389 439.246, 389 437 C 389 434.333, 388.667 434, 386 434 C 384.350 434, 383 434.204, 383 434.453 M 454.643 469.028 C 447.405 471.197, 443.856 478.025, 443.221 491.004 C 442.572 504.277, 444.192 511.428, 448.920 516.155 C 453.743 520.978, 458.582 521.958, 464.819 519.373 C 471.675 516.532, 474.316 510.813, 474.844 497.670 C 475.530 480.602, 471.788 471.424, 463.168 469.030 C 458.969 467.864, 458.529 467.863, 454.643 469.028 M 542.013 468.728 C 537.869 469.517, 533.863 473.064, 531.647 477.908 C 529.889 481.749, 529.542 484.463, 529.523 494.500 C 529.502 505.339, 529.742 506.979, 532 511.448 C 535.425 518.227, 538.824 520.513, 545.390 520.451 C 552.100 520.387, 556.042 517.681, 558.751 511.278 C 564.409 497.902, 561.268 474.743, 553.240 470.641 C 549.810 468.888, 545.252 468.112, 542.013 468.728 M 408.250 472.274 C 402.833 475.007, 402 475.799, 402 478.214 C 402 479.746, 402.212 481, 402.471 481 C 402.731 481, 405.487 479.875, 408.596 478.500 C 411.705 477.125, 414.432 476, 414.656 476 C 414.879 476, 415.018 485.113, 414.963 496.250 C 414.908 507.387, 415.168 517.288, 415.539 518.250 C 416.103 519.712, 417.514 520, 424.107 520 L 432 520 432 517 C 432 514.030, 431.944 514, 426.500 514 L 421 514 421 491.500 L 421 469 417.750 469.060 C 415.962 469.093, 411.688 470.539, 408.250 472.274 M 581.250 472.274 C 575.833 475.007, 575 475.799, 575 478.214 C 575 479.746, 575.240 481, 575.533 481 C 575.827 481, 578.287 479.875, 581 478.500 C 583.713 477.125, 586.398 476, 586.967 476 C 587.641 476, 588 482.592, 588 495 L 588 514 582.500 514 C 577.044 514, 577 514.024, 577 517.028 L 577 520.056 590.750 519.778 L 604.500 519.500 604.500 517 C 604.500 514.689, 604.103 514.477, 599.250 514.198 L 594 513.895 594 491.448 L 594 469 590.750 469.060 C 588.962 469.093, 584.688 470.539, 581.250 472.274 M 494 472.812 C 489.558 474.983, 488.439 476.029, 488.184 478.250 C 487.793 481.640, 488.735 481.675, 495 478.500 C 497.713 477.125, 500.173 476, 500.467 476 C 500.760 476, 501 484.550, 501 495 L 501 514 496 514 C 491.111 514, 491 514.067, 491 517 L 491 520 504.500 520 L 518 520 518 517 C 518 514.067, 517.889 514, 513 514 L 508 514 507.946 501.250 C 507.896 489.391, 507.663 487.875, 504.608 479.554 C 502.801 474.633, 500.913 470.499, 500.412 470.365 C 499.910 470.232, 497.025 471.333, 494 472.812 M 619.153 475.700 C 618.061 477.841, 616.894 481.372, 616.560 483.547 C 616.073 486.714, 616.550 486.022, 618.958 480.065 C 622.224 471.982, 622.337 469.458, 619.153 475.700 M 453.725 475.752 C 452.853 476.715, 451.668 478.742, 451.093 480.256 C 449.578 484.241, 448.657 498.093, 449.722 500.868 C 450.554 503.034, 451.230 502.268, 457.665 491.868 C 461.533 485.616, 465.035 479.909, 465.447 479.187 C 467.768 475.118, 457.121 471.998, 453.725 475.752 M 540.065 475.935 C 537.234 478.766, 536.012 484.343, 536.006 494.464 C 536.001 501.985, 536.214 503.193, 537.328 501.964 C 539.442 499.633, 552 479.369, 552 478.289 C 552 476.341, 548.272 474, 545.171 474 C 543.369 474, 541.165 474.835, 540.065 475.935 M 459.692 497.084 C 455.461 503.728, 452 509.769, 452 510.509 C 452 512.336, 456.813 516, 459.212 516 C 462.550 516, 466.648 510.868, 467.874 505.154 C 469.168 499.118, 469.345 488.092, 468.177 486.252 C 467.652 485.426, 464.782 489.091, 459.692 497.084 M 545.692 497.477 C 538.936 508.241, 538.035 510.198, 539.003 512.006 C 541.919 517.454, 549.597 516.413, 552.638 510.158 C 554.548 506.229, 556.004 484.983, 554.361 485.019 C 553.887 485.029, 549.987 490.635, 545.692 497.477 M 498.185 548.989 C 489.873 550.957, 486.500 558.465, 486.500 575 C 486.500 585.281, 486.765 587.025, 489 591.448 C 492.416 598.209, 495.830 600.514, 502.326 600.446 C 513.672 600.327, 518.199 592.751, 518.128 574 C 518.088 563.252, 516.375 557.045, 512.268 552.758 C 510.080 550.474, 504 547.721, 502 548.108 C 501.725 548.161, 500.008 548.558, 498.185 548.989 M 583.500 549.483 C 581.300 550.274, 578.544 552.114, 577.376 553.570 C 571.625 560.738, 570.443 579.883, 575.035 591.500 L 576.221 594.500 577.742 590.500 C 578.807 587.701, 579.202 583.458, 579.056 576.370 C 578.737 560.863, 581.611 554, 588.422 554 C 591.030 554, 591.894 553.514, 592.344 551.794 C 592.661 550.580, 592.825 549.492, 592.708 549.375 C 591.598 548.264, 586.728 548.321, 583.500 549.483 M 451.750 552.141 C 445.743 554.964, 445 555.626, 445 558.156 C 445 561.636, 445.740 561.672, 452 558.500 C 454.713 557.125, 457.173 556, 457.467 556 C 457.760 556, 458 564.526, 458 574.948 L 458 593.895 452.750 594.198 C 447.897 594.477, 447.500 594.689, 447.500 597 L 447.500 599.500 461.250 599.778 L 475 600.056 475 597.028 C 475 594.063, 474.897 594, 470.019 594 L 465.038 594 464.769 571.750 L 464.500 549.500 461.500 549.235 C 459.739 549.079, 455.712 550.279, 451.750 552.141 M 538.250 552.089 C 532.623 554.716, 532 555.305, 532 558.003 C 532 559.651, 532.240 561, 532.533 561 C 532.827 561, 535.287 559.875, 538 558.500 C 540.713 557.125, 543.173 556, 543.467 556 C 543.760 556, 544 564.550, 544 575 L 544 594 539 594 C 534.111 594, 534 594.067, 534 597 L 534 600 547.500 600 L 561 600 561 597 C 561 594.067, 560.889 594, 556 594 L 551 594 551 571.500 L 551 549 547.750 549.086 C 545.962 549.133, 541.688 550.485, 538.250 552.089 M 495.988 557.250 C 494.898 559.038, 493.799 561.850, 493.547 563.500 C 492.361 571.254, 492.150 575.820, 492.811 579.484 L 493.529 583.468 501.264 571.180 C 505.519 564.422, 509 558.536, 509 558.101 C 509 556.208, 505.047 554, 501.657 554 C 498.571 554, 497.648 554.530, 495.988 557.250 M 503.276 576.338 C 499.340 582.492, 495.827 588.288, 495.470 589.219 C 494.660 591.328, 499.076 596, 501.878 596 C 505.572 596, 509.763 591.332, 510.922 585.927 C 512.170 580.110, 512.370 566.346, 511.217 565.634 C 510.786 565.368, 507.213 570.185, 503.276 576.338 M 458.178 630.508 C 456.592 633.989, 456.597 634, 459.845 634 C 463.105 634, 466.574 637.212, 465.447 639.187 C 465.035 639.909, 461.511 645.651, 457.616 651.946 L 450.534 663.392 449.498 659.700 L 448.462 656.008 446.147 661.836 C 444.014 667.208, 443.946 667.935, 445.280 671.128 C 448.624 679.132, 456.937 682.640, 464.819 679.373 C 468.525 677.837, 469.876 676.539, 471.938 672.533 C 474.091 668.349, 474.539 665.945, 474.848 656.916 C 475.312 643.349, 473.574 636.589, 468.468 632.106 C 466.522 630.398, 464.308 629, 463.547 629 C 462.786 629, 461.532 628.758, 460.760 628.461 C 459.904 628.133, 458.896 628.932, 458.178 630.508 M 542.013 628.728 C 537.869 629.517, 533.863 633.064, 531.647 637.908 C 529.889 641.749, 529.542 644.463, 529.523 654.500 C 529.502 665.339, 529.742 666.979, 532 671.448 C 534.486 676.369, 537.605 679.292, 541.583 680.432 C 543.142 680.879, 543.945 680.416, 544.776 678.592 C 545.781 676.386, 545.616 676.062, 543.021 675.157 C 541.444 674.608, 539.644 673.204, 539.020 672.037 C 538.030 670.188, 538.885 668.323, 545.692 657.477 C 549.987 650.635, 553.808 645.029, 554.184 645.019 C 554.560 645.008, 555.010 646.237, 555.184 647.750 C 555.451 650.077, 555.800 649.620, 557.448 644.777 C 559.288 639.370, 559.304 638.861, 557.736 635.572 C 555.349 630.567, 548.352 627.522, 542.013 628.728 M 495 632.316 C 489.609 634.957, 488.446 635.969, 488.184 638.250 C 487.793 641.640, 488.735 641.675, 495 638.500 C 497.713 637.125, 500.173 636, 500.467 636 C 500.760 636, 501 644.550, 501 655 L 501 674 496 674 C 491.111 674, 491 674.067, 491 677 L 491 680 504.500 680 L 518 680 518 677 C 518 674.067, 517.889 674, 513 674 L 508 674 508 651.500 L 508 629 504.750 629.066 C 502.962 629.103, 498.575 630.565, 495 632.316 M 540.065 635.935 C 537.234 638.766, 536.012 644.343, 536.006 654.464 C 536.001 661.985, 536.214 663.193, 537.328 661.964 C 539.442 659.633, 552 639.369, 552 638.289 C 552 636.341, 548.272 634, 545.171 634 C 543.369 634, 541.165 634.835, 540.065 635.935 M 459.692 657.084 C 455.461 663.728, 452 669.769, 452 670.509 C 452 672.336, 456.813 676, 459.212 676 C 462.550 676, 466.648 670.868, 467.874 665.154 C 469.168 659.118, 469.345 648.092, 468.177 646.252 C 467.652 645.426, 464.782 649.091, 459.692 657.084 M 411.604 709.041 C 403.188 711.552, 399.584 720.325, 400.152 736.916 C 400.461 745.945, 400.909 748.349, 403.062 752.533 C 408.997 764.065, 424.164 763.268, 429.741 751.130 C 431.017 748.353, 431.420 744.446, 431.455 734.500 C 431.497 722.432, 431.321 721.184, 429 717.089 C 427.625 714.662, 425.375 711.891, 424 710.930 C 420.872 708.745, 415.395 707.910, 411.604 709.041 M 498.209 708.984 C 490.619 710.783, 486.899 717.941, 486.214 732.065 C 485.487 747.057, 489.426 757.210, 496.993 759.848 C 499.563 760.743, 500.171 760.593, 501.466 758.745 C 502.873 756.737, 502.786 756.529, 500.061 755.384 C 498.464 754.712, 496.643 753.202, 496.015 752.028 C 494.748 749.661, 495.143 748.861, 505.385 733.002 C 511.822 723.034, 512.463 723.431, 511.815 736.983 L 511.389 745.896 514.852 740.754 C 517.925 736.190, 518.291 734.957, 518.104 729.781 C 517.706 718.753, 513.202 710.984, 506.057 708.999 C 504.101 708.456, 502.275 708.055, 502 708.108 C 501.725 708.161, 500.019 708.556, 498.209 708.984 M 451.750 712.141 C 445.743 714.964, 445 715.626, 445 718.156 C 445 721.636, 445.740 721.672, 452 718.500 C 454.713 717.125, 457.173 716, 457.467 716 C 457.760 716, 458 724.526, 458 734.948 L 458 753.895 452.750 754.198 C 447.853 754.480, 447.479 754.685, 447.184 757.250 L 446.867 760 460.934 760 L 475 760 475 757 C 475 754.068, 474.887 754, 470.019 754 L 465.038 754 464.769 731.750 L 464.500 709.500 461.500 709.235 C 459.739 709.079, 455.712 710.279, 451.750 712.141 M 410.725 715.752 C 408.128 718.621, 406.902 723.003, 406.297 731.580 C 405.343 745.100, 406.480 744.967, 415.435 730.509 C 422.989 718.315, 423.179 717.855, 421.462 715.959 C 419.178 713.434, 412.931 713.314, 410.725 715.752 M 495.988 717.250 C 494.898 719.038, 493.799 721.850, 493.547 723.500 C 492.361 731.254, 492.150 735.820, 492.811 739.484 L 493.529 743.468 501.264 731.180 C 505.519 724.422, 509 718.536, 509 718.101 C 509 716.208, 505.047 714, 501.657 714 C 498.571 714, 497.648 714.530, 495.988 717.250 M 335.836 716.672 C 336.545 717.938, 335.464 720.448, 331.386 727.010 C 327.237 733.686, 326.005 736.574, 326.021 739.588 L 326.041 743.500 332.271 734 L 338.500 724.500 338.788 733.754 C 339.254 748.762, 336.431 755.400, 329.582 755.400 C 326.230 755.400, 325.932 755.625, 326.203 757.950 C 326.472 760.258, 326.907 760.491, 330.797 760.410 C 336.330 760.295, 339.828 757.725, 343 751.448 C 345.263 746.970, 345.496 745.360, 345.459 734.500 C 345.405 719.140, 343.928 715, 338.501 715 C 335.430 715, 335.038 715.246, 335.836 716.672 M 359 718 C 359 721.537, 359.011 721.539, 363.790 719.128 C 365.830 718.099, 368.512 716.944, 369.750 716.561 L 372 715.865 372 734.933 L 372 754 366.500 754 C 361.056 754, 361 754.030, 361 757 L 361 760 375 760 L 389 760 389 757 C 389 754.030, 388.944 754, 383.500 754 L 378 754 378 734.500 L 378 715 368.500 715 L 359 715 359 718 M 416.688 736.832 C 412.393 743.598, 409.019 749.844, 409.190 750.711 C 409.360 751.578, 410.737 753.210, 412.248 754.338 C 415.582 756.824, 419.236 755.923, 422.253 751.871 C 424.804 748.443, 426.673 734.841, 425.412 728.867 L 424.497 724.530 416.688 736.832 M 368.395 789.084 C 365.337 789.969, 360 794.452, 360 796.136 C 360 797.614, 366.687 797.082, 368 795.500 C 369.592 793.582, 375.041 793.564, 377.559 795.468 C 378.626 796.276, 381.017 796.951, 382.872 796.968 C 386.132 796.999, 386.195 796.926, 384.772 794.783 C 381.393 789.694, 374.535 787.307, 368.395 789.084 M 454.376 789.086 C 452.657 789.584, 450.690 790.668, 450.005 791.494 C 448.897 792.829, 449.220 792.834, 452.905 791.534 C 458.212 789.661, 461.114 788.036, 459 788.121 C 458.175 788.153, 456.094 788.588, 454.376 789.086 M 327.250 789.662 C 326.563 789.940, 326 791.427, 326 792.967 C 326 795.868, 327.828 796.956, 332.750 796.986 C 334.711 796.998, 335 796.486, 335 793 C 335 789.138, 334.888 789.003, 331.750 789.079 C 329.962 789.122, 327.938 789.385, 327.250 789.662 M 408.250 792.274 C 404.813 794.008, 402 795.772, 402 796.194 C 402 796.616, 406.275 796.919, 411.500 796.866 L 421 796.770 421 792.885 C 421 789.156, 420.869 789.002, 417.750 789.060 C 415.962 789.093, 411.688 790.539, 408.250 792.274" stroke="none" fill="#050505" fill-rule="evenodd"/>
  </g>
</svg>
